<svg version="1" xmlns="http://www.w3.org/2000/svg" width="400" height="400" viewBox="0 0 300.000000 300.000000"><path d="M50 3.6C34.1 14.1 16.6 30.4 5.7 45.1L0 52.7v224l12 11.6L23.9 300h230l12.1-11.7c11-10.6 22.4-25 31.8-39.8l2.2-3.6V46.1l-4.2-4.8c-8.5-9.8-24-24.3-34.7-32.7L250 0H55.5L50 3.6zm125 6c9.8 1.7 22 5.6 25.5 8.1 1.9 1.3 1.8 1.4-1 .7-1.6-.3-6.4-1.5-10.5-2.6-27.1-6.9-58.7-6.3-83.5 1.7C94 21.2 72.7 32 64 38.6 53.3 46.7 42.9 57.2 35.9 67c-10.8 15-15.4 26-20.2 47.5-2.9 13.1-3.1 15.3-3.1 34 0 16.9.3 21.6 2.2 30.2 3.7 17.1 11.4 35.4 20.2 48.3 4.5 6.4 13.5 15.5 20.2 20.2 16.6 11.5 20.3 13.8 28.4 17.2 10.6 4.5 23 7.6 30 7.6 4.5 0 5.2-.3 5.7-2.2.4-1.2.4-2.4.2-2.6-.2-.2-4-1.3-8.5-2.3-9.9-2.3-28.5-9.9-36-14.6-3-2-7.9-5.6-10.8-8.1-4.7-4-7.8-7.6-19.4-22.1-2.1-2.5-6-8.9-8.7-14.1-15.1-29.1-18.6-57.9-10.6-87.8 5-18.6 19.3-43 33.5-57.2 31-30.9 80.6-43.6 122.6-31.4 19.2 5.5 39.6 17.3 52.4 30.3 25.9 26.2 38.3 56.2 38.4 92.6 0 15.3-1.5 25-6.5 42.5-3.7 12.9-6 18-14.8 32.9-9.7 16.4-10.1 17.4-4.7 11.9 2.5-2.6 4.6-4.4 4.6-4.1 0 1.7-8.8 11.7-13.5 15.2-2.9 2.2-7.7 6.6-10.6 9.7-10.8 11.4-32.4 23.2-50.6 27.8-39 9.7-77.2 3.1-110.7-19.1-11.6-7.7-32-27.3-38.1-36.7C13 210.2 4.6 184.2 3.4 158c-.8-15.4.4-26.8 4.2-41 8.7-32.7 32-66.6 57.3-83.4 21.8-14.5 41.8-21.9 70.6-26 6.1-.9 30.3.3 39.5 2zm46.9 16.5c8.3 3.6 26.6 18.1 33.5 26.6l3.1 3.8-5-4.3c-11.2-9.6-22-17.7-31.2-23.4-9.5-5.8-9.6-6.7-.4-2.7z"/><path d="M167.2 41.5c.3.3 3.8 1.5 7.8 2.6 7.7 2.1 23.4 7.9 22.8 8.4-.2.2-4.1-1-8.8-2.5-4.7-1.6-12.7-3.4-17.9-4-9.2-1.2-19.2-.6-17.5.9.5.5 4.3 1.8 8.4 3.1 4.1 1.2 10.4 3.5 13.9 5.1 4.8 2.2 7.3 2.8 9.8 2.3 2.7-.5 3.4-.3 4 1.4.5 1 4.2 4.9 8.3 8.6 10 9 14.4 13.8 19.6 21.6 4.5 6.6 5.7 10.4 2.9 9.4-.8-.3.5 2.7 3 7.1 4.5 8 7.2 14.1 10.2 23.8 1 3.3 2.2 5.9 2.8 5.9 3.5-.2 3.1-21.9-.5-32.4-1.3-3.7-2-7.1-1.6-7.5 2.3-2.3 12.9 16.8 16.7 29.7 3 10.6 3.8 32.6 1.5 43.9-6.4 31.6-26.6 58-55.1 72.1-5.5 2.8-14.5 6.2-20 7.7-8.8 2.3-11.9 2.6-25.5 2.6-13.5 0-16.7-.3-25-2.5-25.2-6.8-47.6-22.8-61.3-43.9-8-12.4-8-12.3-18.3-40.7-.9-2.3-1.9-4.2-2.4-4.2-1.4 0-2.8 5.9-3.5 14.5-.5 6.3-1.1 8.3-2.6 9.5-1.8 1.4-1.9 2.1-1 6 .5 2.5.8 4.6.6 4.8-.2.2-1.9-2.5-3.8-6-4-7.1-6.1-14.4-8.2-28.4-.8-5.3-1.7-10-2.1-10.3-.4-.3-.4 4.1-.1 9.9 1.3 21.9 8.1 39.8 23.6 61.7 9.1 13 32.3 28.5 50.6 33.8 8.5 2.5 10.2 2.6 32.5 2.7 27.6.2 35.7-.8 53-6.4 20.6-6.6 32.3-13.9 46.4-28.9C266 185.1 269.6 125.3 239 84c-6-8.1-19.9-21.5-27.8-26.9-12.4-8.4-31.8-16.1-40.4-16.1-2.3 0-3.9.2-3.6.5zM216 62.6c1.9 1.2 4.6 3.4 6 5l2.5 2.8-3.5-2.5c-1.9-1.4-6-4.3-9-6.4-9.9-6.9-7.9-6.4 4 1.1zM70.3 228.4c8.6 5.9 11.4 8.6 9 8.6-2.6 0-21.3-13.4-21.3-15.2 0-1.5 1.6-.7 12.3 6.6z"/></svg>